<svg width="24" height="24" viewBox="0 0 24 24" fill="none" xmlns="http://www.w3.org/2000/svg">
<g clip-path="url(#clip0_515_25419)">
<path d="M16 13C16 13.7911 15.7654 14.5645 15.3259 15.2223C14.8864 15.8801 14.2616 16.3928 13.5307 16.6955C12.7998 16.9983 11.9956 17.0775 11.2196 16.9231C10.4437 16.7688 9.73098 16.3878 9.17157 15.8284C8.61216 15.269 8.2312 14.5563 8.07686 13.7804C7.92252 13.0044 8.00173 12.2002 8.30448 11.4693C8.60723 10.7384 9.11992 10.1136 9.77772 9.67412C10.4355 9.2346 11.2089 9 12 9C13.0609 9 14.0783 9.42143 14.8284 10.1716C15.5786 10.9217 16 11.9391 16 13ZM22 9V20H2V9C2 8.20435 2.31607 7.44129 2.87868 6.87868C3.44129 6.31607 4.20435 6 5 6H6.3L7.5 3H16.5L17.7 6H19C19.7956 6 20.5587 6.31607 21.1213 6.87868C21.6839 7.44129 22 8.20435 22 9ZM17 13C17 12.0111 16.7068 11.0444 16.1573 10.2221C15.6079 9.3999 14.827 8.75904 13.9134 8.3806C12.9998 8.00216 11.9945 7.90315 11.0245 8.09607C10.0546 8.289 9.16373 8.7652 8.46447 9.46447C7.7652 10.1637 7.289 11.0546 7.09607 12.0245C6.90315 12.9945 7.00216 13.9998 7.3806 14.9134C7.75904 15.827 8.3999 16.6079 9.22215 17.1573C10.0444 17.7068 11.0111 18 12 18C13.3261 18 14.5979 17.4732 15.5355 16.5355C16.4732 15.5979 17 14.3261 17 13Z" fill="white"/>
</g>
<defs>
<clipPath id="clip0_515_25419">
<rect width="24" height="24" fill="white"/>
</clipPath>
</defs>
</svg>
