<svg width="18" height="15" viewBox="0 0 18 15" fill="none" xmlns="http://www.w3.org/2000/svg">
<path d="M12.3334 8.83333C12.3334 9.49261 12.1379 10.1371 11.7716 10.6852C11.4054 11.2334 10.8848 11.6606 10.2757 11.9129C9.66661 12.1652 8.99638 12.2312 8.34978 12.1026C7.70318 11.974 7.10923 11.6565 6.64306 11.1904C6.17688 10.7242 5.85941 10.1302 5.7308 9.48363C5.60218 8.83703 5.66819 8.16681 5.92048 7.55772C6.17277 6.94864 6.60002 6.42804 7.14818 6.06177C7.69634 5.6955 8.34081 5.5 9.00008 5.5C9.88414 5.5 10.732 5.85119 11.3571 6.47631C11.9822 7.10143 12.3334 7.94928 12.3334 8.83333ZM17.3334 5.5V14.6667H0.666748V5.5C0.666748 4.83696 0.93014 4.20107 1.39898 3.73223C1.86782 3.26339 2.50371 3 3.16675 3H4.25008L5.25008 0.5H12.7501L13.7501 3H14.8334C15.4965 3 16.1323 3.26339 16.6012 3.73223C17.07 4.20107 17.3334 4.83696 17.3334 5.5ZM13.1667 8.83333C13.1667 8.00924 12.9224 7.20366 12.4645 6.51846C12.0067 5.83325 11.356 5.2992 10.5946 4.98384C9.83324 4.66847 8.99546 4.58596 8.1872 4.74673C7.37895 4.9075 6.63652 5.30434 6.0538 5.88706C5.47108 6.46977 5.07425 7.2122 4.91348 8.02046C4.7527 8.82871 4.83522 9.66649 5.15058 10.4278C5.46595 11.1892 6 11.84 6.68521 12.2978C7.37041 12.7556 8.17599 13 9.00008 13C10.1052 13 11.165 12.561 11.9464 11.7796C12.7278 10.9982 13.1667 9.9384 13.1667 8.83333Z" fill="white"/>
</svg>
