<svg width="16" height="16" viewBox="0 0 16 16" fill="none" xmlns="http://www.w3.org/2000/svg">
<path d="M7.99967 1.33337C4.32634 1.33337 1.33301 4.32671 1.33301 8.00004C1.33301 11.6734 4.32634 14.6667 7.99967 14.6667C11.673 14.6667 14.6663 11.6734 14.6663 8.00004C14.6663 4.32671 11.673 1.33337 7.99967 1.33337ZM10.2397 9.53337C10.433 9.72671 10.433 10.0467 10.2397 10.24C10.1397 10.34 10.013 10.3867 9.88634 10.3867C9.75968 10.3867 9.63301 10.34 9.53301 10.24L7.99967 8.70671L6.46634 10.24C6.36634 10.34 6.23967 10.3867 6.11301 10.3867C5.98634 10.3867 5.85967 10.34 5.75968 10.24C5.56634 10.0467 5.56634 9.72671 5.75968 9.53337L7.29301 8.00004L5.75968 6.46671C5.56634 6.27337 5.56634 5.95337 5.75968 5.76004C5.95301 5.56671 6.27301 5.56671 6.46634 5.76004L7.99967 7.29337L9.53301 5.76004C9.72634 5.56671 10.0463 5.56671 10.2397 5.76004C10.433 5.95337 10.433 6.27337 10.2397 6.46671L8.70634 8.00004L10.2397 9.53337Z" fill="#64748B"/>
</svg>
