<svg width="17" height="9" viewBox="0 0 17 9" fill="none" xmlns="http://www.w3.org/2000/svg">
<path d="M8.46534 0.148526C7.27389 0.295417 6.09876 0.687127 5.34798 1.18492C4.5564 1.71128 4.35238 2.18052 4.39727 3.37605C4.40543 3.6984 4.43807 4.10235 4.46663 4.27372L4.5156 4.5879L4.80938 4.67359C6.11508 5.06938 8.86113 5.0857 10.5463 4.70215C10.783 4.64911 10.9829 4.61239 10.987 4.61647C11.0155 4.64503 10.0975 4.91841 9.64863 5.02042C8.66527 5.23667 8.30212 5.26932 6.83321 5.26932C5.67441 5.26932 5.39694 5.25707 5.01748 5.19179C4.77266 5.15099 4.52784 5.11834 4.47479 5.11834C4.42175 5.12242 4.08308 5.22443 3.71586 5.34684C0.500571 6.41996 -0.0421099 7.43596 2.17758 8.20306C4.22181 8.91303 6.71488 9.06808 9.05698 8.63149C11.3787 8.20306 13.5372 7.23194 15.3243 5.81608C15.916 5.35092 16.5892 4.66543 16.7239 4.40429C17.0095 3.83305 16.7443 3.50662 15.8711 3.34341C15.4794 3.26588 14.1206 3.25772 13.4066 3.32709C13.1495 3.35157 12.9333 3.36789 12.9292 3.35973C12.9251 3.35565 12.9006 3.17612 12.8762 2.96394C12.7293 1.73985 12.2151 0.821777 11.4684 0.454549C11.0115 0.226051 10.5422 0.144445 9.58742 0.128124C9.13859 0.119964 8.63263 0.128124 8.46534 0.148526Z" fill="#94A3B8"/>
</svg>
