<svg width="20" height="20" viewBox="0 0 20 20" fill="none" xmlns="http://www.w3.org/2000/svg">
<g clip-path="url(#clip0_159_43954)">
<path d="M6.37578 17.4255C6.35078 17.4255 6.31745 17.4422 6.29245 17.4422C4.67578 16.6422 3.35911 15.3172 2.55078 13.7005C2.55078 13.6755 2.56745 13.6422 2.56745 13.6172C3.58411 13.9172 4.63411 14.1422 5.67578 14.3172C5.85911 15.3672 6.07578 16.4089 6.37578 17.4255Z" fill="#334155"/>
<path d="M17.4492 13.7089C16.6242 15.3672 15.2492 16.7089 13.5742 17.5172C13.8909 16.4589 14.1576 15.3922 14.3326 14.3172C15.3826 14.1422 16.4159 13.9172 17.4326 13.6172C17.4242 13.6505 17.4492 13.6839 17.4492 13.7089Z" fill="#334155"/>
<path d="M17.5159 6.42409C16.4659 6.10742 15.4076 5.84909 14.3326 5.66576C14.1576 4.59076 13.8992 3.52409 13.5742 2.48242C15.2992 3.30742 16.6909 4.69909 17.5159 6.42409Z" fill="#334155"/>
<path d="M6.37604 2.57578C6.07604 3.59245 5.85938 4.62578 5.68438 5.67578C4.60938 5.84245 3.54271 6.10911 2.48438 6.42578C3.29271 4.75078 4.63438 3.37578 6.29271 2.55078C6.31771 2.55078 6.35104 2.57578 6.37604 2.57578Z" fill="#334155"/>
<path d="M12.9065 5.49102C10.9732 5.27435 9.02318 5.27435 7.08984 5.49102C7.29818 4.34935 7.56484 3.20768 7.93984 2.10768C7.95651 2.04102 7.94818 1.99102 7.95651 1.92435C8.61484 1.76602 9.28984 1.66602 9.99818 1.66602C10.6982 1.66602 11.3815 1.76602 12.0315 1.92435C12.0398 1.99102 12.0398 2.04102 12.0565 2.10768C12.4315 3.21602 12.6982 4.34935 12.9065 5.49102Z" fill="#334155"/>
<path d="M5.49297 12.9085C4.34297 12.7001 3.20964 12.4335 2.10964 12.0585C2.04297 12.0418 1.99297 12.0501 1.9263 12.0418C1.76797 11.3835 1.66797 10.7085 1.66797 10.0001C1.66797 9.30013 1.76797 8.6168 1.9263 7.9668C1.99297 7.95846 2.04297 7.95846 2.10964 7.9418C3.21797 7.57513 4.34297 7.30013 5.49297 7.0918C5.28464 9.02513 5.28464 10.9751 5.49297 12.9085Z" fill="#334155"/>
<path d="M18.3328 10.0001C18.3328 10.7085 18.2328 11.3835 18.0745 12.0418C18.0078 12.0501 17.9578 12.0418 17.8911 12.0585C16.7828 12.4251 15.6495 12.7001 14.5078 12.9085C14.7245 10.9751 14.7245 9.02513 14.5078 7.0918C15.6495 7.30013 16.7911 7.5668 17.8911 7.9418C17.9578 7.95846 18.0078 7.9668 18.0745 7.9668C18.2328 8.62513 18.3328 9.30013 18.3328 10.0001Z" fill="#334155"/>
<path d="M12.9065 14.5078C12.6982 15.6578 12.4315 16.7911 12.0565 17.8911C12.0398 17.9578 12.0398 18.0078 12.0315 18.0745C11.3815 18.2328 10.6982 18.3328 9.99818 18.3328C9.28984 18.3328 8.61484 18.2328 7.95651 18.0745C7.94818 18.0078 7.95651 17.9578 7.93984 17.8911C7.57318 16.7828 7.29818 15.6578 7.08984 14.5078C8.05651 14.6161 9.02318 14.6911 9.99818 14.6911C10.9732 14.6911 11.9482 14.6161 12.9065 14.5078Z" fill="#334155"/>
<path d="M13.1374 13.1355C11.0532 13.3984 8.94944 13.3984 6.86519 13.1355C6.60223 11.0512 6.60223 8.94749 6.86519 6.86324C8.94944 6.60027 11.0532 6.60027 13.1374 6.86324C13.4004 8.94749 13.4004 11.0512 13.1374 13.1355Z" fill="#334155"/>
</g>
<defs>
<clipPath id="clip0_159_43954">
<rect width="20" height="20" fill="white"/>
</clipPath>
</defs>
</svg>
