<svg width="25" height="24" viewBox="0 0 25 24" fill="none" xmlns="http://www.w3.org/2000/svg">
<path d="M23.06 12.2505C23.06 11.4705 22.99 10.7205 22.86 10.0005H12.5V14.2605H18.42C18.16 15.6305 17.38 16.7905 16.21 17.5705V20.3405H19.78C21.86 18.4205 23.06 15.6005 23.06 12.2505Z" fill="#4285F4"/>
<path d="M12.4997 23.0006C15.4697 23.0006 17.9597 22.0206 19.7797 20.3406L16.2097 17.5706C15.2297 18.2306 13.9797 18.6306 12.4997 18.6306C9.63969 18.6306 7.20969 16.7006 6.33969 14.1006H2.67969V16.9406C4.48969 20.5306 8.19969 23.0006 12.4997 23.0006Z" fill="#34A853"/>
<path d="M6.33609 14.0893C6.11609 13.4293 5.98609 12.7293 5.98609 11.9993C5.98609 11.2693 6.11609 10.5693 6.33609 9.90934V7.06934H2.67609C1.92609 8.54934 1.49609 10.2193 1.49609 11.9993C1.49609 13.7793 1.92609 15.4493 2.67609 16.9293L5.52609 14.7093L6.33609 14.0893Z" fill="#FBBC05"/>
<path d="M12.4997 5.38049C14.1197 5.38049 15.5597 5.94049 16.7097 7.02049L19.8597 3.87049C17.9497 2.09049 15.4697 1.00049 12.4997 1.00049C8.19969 1.00049 4.48969 3.47049 2.67969 7.07049L6.33969 9.91049C7.20969 7.31049 9.63969 5.38049 12.4997 5.38049Z" fill="#EA4335"/>
</svg>
