<svg width="18" height="19" viewBox="0 0 18 19" fill="none" xmlns="http://www.w3.org/2000/svg">
<path d="M15.335 15.8065H12.67V11.6295C12.67 10.6335 12.65 9.35153 11.28 9.35153C9.891 9.35153 9.679 10.4355 9.679 11.5565V15.8065H7.013V7.21753H9.573V8.38753H9.608C9.966 7.71353 10.836 7.00053 12.136 7.00053C14.836 7.00053 15.336 8.77853 15.336 11.0915V15.8065H15.335ZM4.003 6.04253C3.79956 6.04279 3.59806 6.0029 3.41006 5.92514C3.22207 5.84737 3.05127 5.73327 2.90746 5.58937C2.76365 5.44546 2.64965 5.27459 2.57201 5.08654C2.49437 4.8985 2.4546 4.69697 2.455 4.49353C2.4552 4.18736 2.54618 3.88813 2.71644 3.63368C2.8867 3.37922 3.12859 3.18096 3.41153 3.06398C3.69447 2.947 4.00574 2.91655 4.30598 2.97647C4.60622 3.03639 4.88196 3.184 5.09831 3.40064C5.31466 3.61727 5.46191 3.89319 5.52145 4.19351C5.58099 4.49383 5.55013 4.80506 5.43278 5.08785C5.31543 5.37063 5.11687 5.61227 4.86219 5.7822C4.60751 5.95213 4.30817 6.04273 4.002 6.04253H4.003ZM5.339 15.8065H2.666V7.21753H5.34V15.8065H5.339ZM16.67 0.467529H1.329C0.593 0.467529 0 1.04753 0 1.76453V17.1705C0 17.8875 0.594 18.4675 1.328 18.4675H16.666C17.4 18.4675 18 17.8875 18 17.1705V1.76453C18 1.04753 17.4 0.467529 16.666 0.467529H16.669H16.67Z" fill="#8E98A8"/>
</svg>
