<svg width="16" height="16" viewBox="0 0 16 16" fill="none" xmlns="http://www.w3.org/2000/svg">
<path d="M8.00004 5.25977L7.28671 6.49977C7.12671 6.7731 7.26004 6.99977 7.57337 6.99977H8.42004C8.74004 6.99977 8.86671 7.22643 8.70671 7.49977L8.00004 8.73977" stroke="#334155" stroke-width="1.5" stroke-linecap="round" stroke-linejoin="round"/>
<path d="M5.53161 12.0261V11.2528C3.99828 10.3261 2.73828 8.51947 2.73828 6.59947C2.73828 3.29947 5.77162 0.712799 9.19828 1.45947C10.7049 1.7928 12.0249 2.7928 12.7116 4.1728C14.1049 6.9728 12.6383 9.94613 10.4849 11.2461V12.0195C10.4849 12.2128 10.5583 12.6595 9.84495 12.6595H6.17161C5.43828 12.6661 5.53161 12.3795 5.53161 12.0261Z" stroke="#334155" stroke-width="1.5" stroke-linecap="round" stroke-linejoin="round"/>
<path d="M5.66797 14.6668C7.19464 14.2335 8.80797 14.2335 10.3346 14.6668" stroke="#334155" stroke-width="1.5" stroke-linecap="round" stroke-linejoin="round"/>
</svg>
