<svg width="17" height="9" viewBox="0 0 17 9" fill="none" xmlns="http://www.w3.org/2000/svg">
<path d="M10.2714 0.211778C10.1534 0.2401 9.75214 0.343951 9.37922 0.447802C8.96382 0.561092 8.59562 0.6319 8.43512 0.6319C8.28879 0.6319 7.84034 0.565813 7.4391 0.480844C6.48557 0.287305 5.72085 0.268423 5.31017 0.43364C4.90893 0.594136 4.63986 0.853763 4.418 1.30693C4.31415 1.51935 4.20085 1.84034 4.16309 2.02444C4.097 2.35015 3.93179 3.90319 3.87042 4.79536L3.83738 5.24853L3.38421 5.32877C2.71862 5.45151 1.82173 5.70641 1.42993 5.88579C0.79739 6.18318 0.5 6.51361 0.5 6.9243C0.5 8.60479 5.11191 9.30342 10.8614 8.48677C13.656 8.09025 15.53 7.47659 16.2286 6.73076C16.7007 6.22567 16.5496 5.70169 15.8321 5.37598C15.4922 5.2202 15.0721 5.13524 14.331 5.06915C14.0053 5.04555 13.6512 5.0125 13.5427 4.99834L13.3397 4.97474V5.51759C13.3397 5.92828 13.3255 6.06045 13.2783 6.06045C13.2453 6.06045 12.3484 6.12181 11.2863 6.19734C7.87339 6.44753 6.91985 6.49473 5.66892 6.50417C4.37079 6.50889 3.93651 6.46169 3.86098 6.30591C3.83738 6.26343 3.83266 6.0038 3.84682 5.73002L3.87514 5.23437L4.11117 5.20132C6.59414 4.84257 9.98816 4.74816 12.8818 4.95586L13.2925 4.9889V4.8048C13.2925 4.57822 13.047 2.87413 12.9101 2.16606C12.726 1.18892 12.372 0.598857 11.7914 0.315628C11.5506 0.197616 11.4657 0.183455 11.0031 0.174014C10.7198 0.169293 10.3894 0.188175 10.2714 0.211778Z" fill="#94A3B8"/>
</svg>
