<svg width="20" height="20" viewBox="0 0 20 20" fill="none" xmlns="http://www.w3.org/2000/svg">
<path d="M9.99896 14.4589C10.7491 14.4589 11.3573 13.8507 11.3573 13.1005C11.3573 12.3503 10.7491 11.7422 9.99896 11.7422C9.24877 11.7422 8.64062 12.3503 8.64062 13.1005C8.64062 13.8507 9.24877 14.4589 9.99896 14.4589Z" fill="#475569"/>
<path d="M15.2346 7.94102V6.89935C15.2346 4.64935 14.693 1.66602 10.0013 1.66602C5.30964 1.66602 4.76797 4.64935 4.76797 6.89935V7.94102C2.43464 8.23268 1.66797 9.41602 1.66797 12.3243V13.8743C1.66797 17.291 2.70964 18.3327 6.1263 18.3327H13.8763C17.293 18.3327 18.3346 17.291 18.3346 13.8743V12.3243C18.3346 9.41602 17.568 8.23268 15.2346 7.94102ZM10.0013 15.616C8.60964 15.616 7.48464 14.4827 7.48464 13.0993C7.48464 11.7077 8.61797 10.5827 10.0013 10.5827C11.3846 10.5827 12.518 11.716 12.518 13.0993C12.518 14.491 11.393 15.616 10.0013 15.616ZM6.1263 7.86602C6.05964 7.86602 6.0013 7.86602 5.93464 7.86602V6.89935C5.93464 4.45768 6.6263 2.83268 10.0013 2.83268C13.3763 2.83268 14.068 4.45768 14.068 6.89935V7.87435C14.0013 7.87435 13.943 7.87435 13.8763 7.87435H6.1263V7.86602Z" fill="#475569"/>
</svg>
