<svg  viewBox="0 0 24 24" fill="none" xmlns="http://www.w3.org/2000/svg">
<path d="M2 12C2 13.9778 2.58649 15.9112 3.6853 17.5557C4.78412 19.2002 6.3459 20.4819 8.17317 21.2388C10.0004 21.9957 12.0111 22.1937 13.9509 21.8079C15.8907 21.422 17.6725 20.4696 19.0711 19.0711C20.4696 17.6725 21.422 15.8907 21.8079 13.9509C22.1937 12.0111 21.9957 10.0004 21.2388 8.17317C20.4819 6.3459 19.2002 4.78412 17.5557 3.6853C15.9112 2.58649 13.9778 2 12 2C10.6868 2 9.38642 2.25866 8.17317 2.7612C6.95991 3.26375 5.85752 4.00035 4.92893 4.92893C3.05357 6.8043 2 9.34784 2 12ZM4 12C4 10.4177 4.46919 8.87103 5.34824 7.55544C6.22729 6.23984 7.47672 5.21447 8.93853 4.60896C10.4003 4.00346 12.0089 3.84504 13.5607 4.15372C15.1126 4.4624 16.538 5.22433 17.6569 6.34315C18.7757 7.46197 19.5376 8.88743 19.8463 10.4393C20.155 11.9911 19.9965 13.5997 19.391 15.0615C18.7855 16.5233 17.7602 17.7727 16.4446 18.6518C15.129 19.5308 13.5823 20 12 20C9.87827 20 7.84344 19.1571 6.34315 17.6569C4.84285 16.1566 4 14.1217 4 12Z" />
<path d="M15.1 12.63L13 11.42V7C13 6.73478 12.8946 6.48043 12.7071 6.29289C12.5196 6.10536 12.2652 6 12 6C11.7348 6 11.4804 6.10536 11.2929 6.29289C11.1054 6.48043 11 6.73478 11 7V12C11.0038 12.1738 11.0528 12.3436 11.1423 12.4926C11.2317 12.6417 11.3584 12.7649 11.51 12.85L14.1 14.37C14.2143 14.4357 14.3403 14.4782 14.471 14.4951C14.6017 14.5121 14.7344 14.5031 14.8616 14.4687C14.9888 14.4344 15.108 14.3753 15.2124 14.2949C15.3168 14.2144 15.4043 14.1143 15.47 14C15.5357 13.8857 15.5782 13.7597 15.5951 13.629C15.6121 13.4983 15.6031 13.3656 15.5687 13.2384C15.5344 13.1112 15.4753 12.992 15.3949 12.8876C15.3144 12.7832 15.2143 12.6957 15.1 12.63Z" />
</svg>
