<svg width="20" height="20" viewBox="0 0 20 20" fill="none" xmlns="http://www.w3.org/2000/svg">
<path d="M14.1654 18.334H5.83203C5.49036 18.334 5.20703 18.0507 5.20703 17.709C5.20703 17.3673 5.49036 17.084 5.83203 17.084H14.1654C14.507 17.084 14.7904 17.3673 14.7904 17.709C14.7904 18.0507 14.507 18.334 14.1654 18.334Z" fill="#475569"/>
<path d="M16.9575 4.59922L13.6242 6.98255C13.1825 7.29922 12.5492 7.10755 12.3575 6.59922L10.7825 2.39922C10.5159 1.67422 9.49087 1.67422 9.22421 2.39922L7.64087 6.59089C7.44921 7.10755 6.82421 7.29922 6.38254 6.97422L3.04921 4.59089C2.38254 4.12422 1.49921 4.78255 1.77421 5.55755L5.24087 15.2659C5.35754 15.5992 5.67421 15.8159 6.02421 15.8159H13.9659C14.3159 15.8159 14.6325 15.5909 14.7492 15.2659L18.2159 5.55755C18.4992 4.78255 17.6159 4.12422 16.9575 4.59922ZM12.0825 12.2909H7.91587C7.57421 12.2909 7.29087 12.0076 7.29087 11.6659C7.29087 11.3242 7.57421 11.0409 7.91587 11.0409H12.0825C12.4242 11.0409 12.7075 11.3242 12.7075 11.6659C12.7075 12.0076 12.4242 12.2909 12.0825 12.2909Z" fill="#475569"/>
</svg>
