<svg width="128" height="32" viewBox="0 0 128 32" fill="none" xmlns="http://www.w3.org/2000/svg">
    <path
        d="M84.6637 11.8818V23.4C84.3946 25.493 83.4748 27.4481 82.0344 28.9883C80.5941 30.5284 78.7063 31.5755 76.6387 31.9811V11.8818H84.6637Z"
        fill="white" />
    <path
        d="M84.6637 4.01889C84.6637 4.81375 84.4283 5.59076 83.9874 6.25166C83.5465 6.91256 82.9199 7.42767 82.1867 7.73185C81.4535 8.03603 80.6467 8.11562 79.8684 7.96055C79.09 7.80548 78.3751 7.42272 77.8139 6.86067C77.2527 6.29862 76.8706 5.58252 76.7158 4.80293C76.5609 4.02335 76.6404 3.21528 76.9441 2.48093C77.2478 1.74657 77.7621 1.11891 78.4219 0.677304C79.0818 0.235703 79.8576 0 80.6512 0C81.7153 0 82.7359 0.423417 83.4884 1.1771C84.2409 1.93079 84.6637 2.95301 84.6637 4.01889Z"
        fill="white" />
    <path
        d="M21.8681 0.0244141H0C0.46306 2.29353 1.69435 4.33284 3.48563 5.79744C5.27691 7.26204 7.51825 8.06206 9.8306 8.06219H11.8368V31.9842C13.9471 31.5644 15.8667 30.4759 17.3118 28.8794C18.7569 27.2829 19.6509 25.2631 19.8618 23.1185V8.06219H32.0774C31.1481 3.47583 26.7216 0.0244141 21.8681 0.0244141Z"
        fill="white" />
    <path
        d="M53.3664 11.8961V31.9906L50.4277 29.0471C48.6474 30.8369 46.2569 31.8856 43.7365 31.9825C43.6032 31.9825 43.47 31.9906 43.3352 31.9906C41.3513 31.9906 39.4119 31.4015 37.7623 30.2976C36.1126 29.1937 34.8269 27.6246 34.0675 25.7888C33.3082 23.953 33.1094 21.9329 33.4963 19.984C33.8832 18.0351 34.8384 16.2448 36.2411 14.8396C37.1714 13.9051 38.2769 13.1639 39.494 12.6588C40.7112 12.1537 42.0161 11.8945 43.3336 11.8961C43.4684 11.8961 43.6016 11.8961 43.7348 11.8961V20.0239C43.54 19.963 43.3371 19.9321 43.133 19.9323C42.6014 19.934 42.0921 20.1463 41.7162 20.5227C41.3403 20.8992 41.1284 21.4093 41.1267 21.9417C41.1258 22.3515 41.2502 22.7518 41.4831 23.0886C41.7161 23.4255 42.0464 23.6828 42.4297 23.826C42.8131 23.9693 43.231 23.9915 43.6273 23.8897C44.0236 23.7879 44.3793 23.567 44.6465 23.2567C44.9652 22.8932 45.1404 22.4256 45.1392 21.9417V11.8945L53.3664 11.8961Z"
        fill="white" />
    <path
        d="M127.998 21.9434C128.002 24.5395 127 27.036 125.204 28.9082C123.409 30.7803 120.958 31.8823 118.368 31.9825C118.235 31.9825 118.102 31.9906 117.967 31.9906C115.306 31.9906 112.755 30.932 110.874 29.0478C108.992 27.1636 107.936 24.608 107.936 21.9434C107.936 21.9096 107.936 21.8758 107.936 21.8421C107.962 19.1951 109.03 16.6655 110.908 14.8031C112.786 12.9407 115.322 11.896 117.965 11.8961C118.1 11.8961 118.233 11.8961 118.366 11.8961V20.0239C118.074 19.9323 117.765 19.9088 117.462 19.9554C117.159 20.002 116.871 20.1174 116.62 20.2928C116.369 20.4681 116.161 20.6988 116.012 20.9671C115.864 21.2353 115.779 21.5341 115.763 21.8405C115.763 21.8742 115.763 21.908 115.763 21.9417C115.763 22.4747 115.974 22.9858 116.351 23.3626C116.727 23.7395 117.237 23.9512 117.769 23.9512C118.301 23.9512 118.812 23.7395 119.188 23.3626C119.564 22.9858 119.776 22.4747 119.776 21.9417V11.8945C124.355 12.8253 128 17.0805 128 21.9417"
        fill="white" />
    <path
        d="M32.077 11.9053V19.9431H31.4751C31.0059 19.9441 30.5518 20.1094 30.1913 20.4103C29.8309 20.7112 29.5867 21.1287 29.501 21.5908C29.4797 21.7102 29.4689 21.8312 29.4689 21.9525V23.1871C29.256 25.2928 28.385 27.2774 26.9801 28.8583C25.5752 30.4393 23.708 31.5358 21.6445 31.9917V21.9525C21.6433 20.6327 21.9019 19.3256 22.4055 18.1061C22.9092 16.8865 23.6481 15.7784 24.5798 14.8452C25.5115 13.912 26.6179 13.172 27.8355 12.6675C29.0531 12.163 30.3581 11.904 31.6758 11.9053C31.8106 11.9053 31.9438 11.9053 32.077 11.9053Z"
        fill="white" />
    <path
        d="M75.0334 0.015625V21.9523C75.0325 23.7475 74.5518 25.5096 73.6413 27.0559C72.7309 28.6022 71.4237 29.8762 69.8557 30.7456C68.4898 31.5052 66.9646 31.932 65.4034 31.9915C65.2702 31.9915 65.137 31.9995 65.0022 31.9995C63.0183 31.9996 61.0789 31.4104 59.4292 30.3065C57.7796 29.2026 56.4938 27.6336 55.7345 25.7978C54.9752 23.962 54.7764 21.9419 55.1633 19.993C55.5502 18.044 56.5054 16.2538 57.9081 14.8485C58.8384 13.914 59.9438 13.1729 61.161 12.6678C62.3782 12.1626 63.6831 11.9034 65.0006 11.9051C65.1354 11.9051 65.2686 11.9051 65.4018 11.9051V20.0233C65.2329 19.9699 65.0573 19.9401 64.8802 19.9348C64.8535 19.9332 64.8267 19.9332 64.8 19.9348C64.2673 19.937 63.7572 20.1505 63.3814 20.5287C63.0057 20.9068 62.7949 21.4188 62.7953 21.9523C62.7962 22.485 63.0078 22.9956 63.3839 23.3723C63.7599 23.7489 64.2697 23.9609 64.8016 23.9618C64.8283 23.9634 64.8551 23.9634 64.8818 23.9618C65.0589 23.9565 65.2345 23.9267 65.4034 23.8733C65.757 23.7603 66.0729 23.5524 66.3167 23.2721C66.6346 22.9063 66.8092 22.4373 66.8078 21.9523V9.89566C66.8078 4.98618 70.3853 0.893348 75.0334 0.0236608"
        fill="white" />
    <path
        d="M106.331 0.015625V21.9523C106.335 24.5485 105.334 27.045 103.538 28.9171C101.742 30.7893 99.2914 31.8912 96.7013 31.9915C96.5681 31.9915 96.4349 31.9995 96.3 31.9995C94.3161 31.9996 92.3767 31.4104 90.7271 30.3065C89.0775 29.2026 87.7917 27.6336 87.0324 25.7978C86.273 23.962 86.0743 21.9419 86.4612 19.993C86.848 18.044 87.8032 16.2538 89.206 14.8485C90.1362 13.914 91.2417 13.1729 92.4589 12.6678C93.6761 12.1626 94.9809 11.9034 96.2984 11.9051C96.4333 11.9051 96.5665 11.9051 96.6997 11.9051V20.0233C96.5049 19.9623 96.3019 19.9314 96.0978 19.9316C95.5646 19.9337 95.054 20.1477 94.6781 20.5266C94.3023 20.9055 94.0919 21.4182 94.0932 21.9523C94.0937 22.2677 94.1682 22.5785 94.3107 22.8597C94.4532 23.1409 94.6597 23.3846 94.9134 23.5713C95.1672 23.7579 95.4613 23.8821 95.7718 23.9341C96.0824 23.986 96.4007 23.9641 96.7013 23.8701C97.0549 23.7571 97.3707 23.5491 97.6145 23.2689C97.9318 22.9039 98.1062 22.4362 98.1057 21.9523V9.89566C98.1057 4.98618 101.683 0.893348 106.331 0.0236608"
        fill="white" />
</svg>
    