<svg width="17" height="14" viewBox="0 0 17 14" fill="none" xmlns="http://www.w3.org/2000/svg">
<path d="M7.55965 0.497828L4.4318 3.62498H0.84375C0.377578 3.62498 0 4.00255 0 4.46873V9.53123C0 9.99705 0.377578 10.375 0.84375 10.375H4.4318L7.55965 13.5021C8.08805 14.0305 9 13.6593 9 12.9055V1.09443C9 0.339976 8.08734 -0.0298676 7.55965 0.497828ZM16.875 6.99998C16.875 4.7665 15.7479 2.71302 13.8596 1.50716C13.4663 1.25615 12.9445 1.37287 12.6953 1.76943C12.446 2.16599 12.5624 2.69087 12.9558 2.94224C14.3532 3.83486 15.1875 5.3515 15.1875 6.99998C15.1875 8.64845 14.3532 10.1651 12.9558 11.0577C12.5624 11.3087 12.446 11.8336 12.6953 12.2305C12.9241 12.5947 13.4378 12.7628 13.8596 12.4928C15.7479 11.2869 16.875 9.23345 16.875 6.99998ZM11.8909 4.29751C11.4838 4.07498 10.9702 4.22158 10.7445 4.62974C10.5198 5.03791 10.6685 5.55084 11.0767 5.77619C11.5305 6.02544 11.8125 6.49478 11.8125 6.99998C11.8125 7.50552 11.5305 7.97451 11.077 8.22377C10.6689 8.44912 10.5202 8.96205 10.7448 9.37021C10.9709 9.78013 11.4848 9.92568 11.8912 9.70244C12.8837 9.15576 13.5004 8.12041 13.5004 6.99962C13.5004 5.87884 12.8837 4.84384 11.8909 4.29751Z" fill="#1758BA"/>
</svg>
