<svg width="32" height="32" viewBox="0 0 32 32" fill="none" xmlns="http://www.w3.org/2000/svg">
<g id="Group">
<rect id="Rectangle Copy 2" width="32" height="32" fill="white" fill-opacity="0.01"/>
<g id="Group 6">
<g id="Group 4 Copy">
<path id="Oval" d="M25.6966 15.21C24.2994 16.3414 22.3189 16.3587 20.9074 15.2843C20.6877 15.117 20.6451 14.8033 20.8124 14.5836C20.9796 14.3639 21.2933 14.3213 21.5131 14.4886C22.5599 15.2854 24.0303 15.2726 25.0673 14.4329C25.4221 14.1455 25.6976 13.786 25.8806 13.3796C26.3236 12.3951 26.1844 11.2371 25.493 10.3832C24.9299 9.6879 24.0913 9.30397 23.2133 9.31608C22.7983 9.3218 22.3892 9.41664 22.0135 9.59661C21.7645 9.71592 21.4659 9.61075 21.3466 9.36171C21.2273 9.11268 21.3324 8.81407 21.5815 8.69476C22.0886 8.45182 22.6404 8.32389 23.1996 8.31618C24.3808 8.29988 25.5121 8.81778 26.2701 9.75389C27.2014 10.904 27.3889 12.4645 26.7925 13.79C26.5457 14.3383 26.1737 14.8236 25.6966 15.21Z" fill="#353535"/>
</g>
<g id="Group 4 Copy 2">
<path id="Oval_2" d="M6.27992 15.21C7.67714 16.3414 9.65762 16.3587 11.0692 15.2843C11.2889 15.117 11.3314 14.8033 11.1642 14.5836C10.9969 14.3639 10.6832 14.3213 10.4635 14.4886C9.41664 15.2854 7.94622 15.2726 6.90924 14.4329C6.55443 14.1455 6.27893 13.786 6.096 13.3796C5.65299 12.3951 5.79214 11.2371 6.48361 10.3832C7.04666 9.6879 7.88525 9.30397 8.76322 9.31608C9.1783 9.3218 9.58737 9.41664 9.96304 9.59661C10.2121 9.71592 10.5107 9.61075 10.63 9.36171C10.7493 9.11268 10.6441 8.81407 10.3951 8.69476C9.88798 8.45182 9.33613 8.32389 8.77701 8.31618C7.59572 8.29988 6.46451 8.81778 5.70646 9.75389C4.77514 10.904 4.58762 12.4645 5.18409 13.79C5.43086 14.3383 5.80281 14.8236 6.27992 15.21Z" fill="#353535"/>
</g>
<g id="Group 4">
<path id="Oval_3" fillRule="evenodd" clipRule="evenodd" d="M20.6663 11.3333C20.6663 8.75596 18.577 6.66663 15.9997 6.66663C13.4223 6.66663 11.333 8.75596 11.333 11.3333C11.333 13.9106 13.4223 16 15.9997 16C18.577 16 20.6663 13.9106 20.6663 11.3333ZM12.333 11.3333C12.333 9.30825 13.9746 7.66663 15.9997 7.66663C18.0247 7.66663 19.6663 9.30825 19.6663 11.3333C19.6663 13.3583 18.0247 15 15.9997 15C13.9746 15 12.333 13.3583 12.333 11.3333Z" fill="#353535"/>
<path id="Path 6" fillRule="evenodd" clipRule="evenodd" d="M11.487 16.8333H20.5127C22.3405 16.8333 23.8332 18.2446 23.8332 19.9999V21.8073C23.8332 22.5645 23.1963 23.1666 22.4243 23.1666H9.57534C8.80334 23.1666 8.1665 22.5645 8.1665 21.8073V19.9999C8.1665 18.2446 9.65922 16.8333 11.487 16.8333ZM20.5127 17.8333H11.487C10.1994 17.8333 9.1665 18.8098 9.1665 19.9999V21.8073C9.1665 21.9993 9.34347 22.1666 9.57534 22.1666H22.4243C22.6562 22.1666 22.8332 21.9993 22.8332 21.8073V19.9999C22.8332 18.8098 21.8003 17.8333 20.5127 17.8333Z" fill="#353535"/>
</g>
<path id="Path 8" d="M26.0001 16.8333C27.6887 16.8333 29.0686 18.1549 29.1618 19.8202L29.1668 19.9999V21.3333C29.1668 22.2951 28.426 23.084 27.4838 23.1605L27.3334 23.1666H25.3016C25.0254 23.1666 24.8016 22.9427 24.8016 22.6666C24.8016 22.4211 24.9784 22.217 25.2117 22.1746L25.3016 22.1666H27.3334C27.7583 22.1666 28.1089 21.8487 28.1603 21.4378L28.1668 21.3333V19.9999C28.1668 18.8553 27.2792 17.918 26.1548 17.8387L26.0001 17.8333H24.6777C24.4016 17.8333 24.1777 17.6094 24.1777 17.3333C24.1777 17.0878 24.3546 16.8836 24.5879 16.8413L24.6777 16.8333H26.0001Z" fill="#353535"/>
<path id="Path 8 Copy" d="M6.01113 16.8333C4.32253 16.8333 2.94263 18.1549 2.84947 19.8202L2.84446 19.9999V21.3333C2.84446 22.2951 3.58524 23.084 4.52743 23.1605L4.67779 23.1666H6.70966C6.9858 23.1666 7.20966 22.9427 7.20966 22.6666C7.20966 22.4211 7.03279 22.217 6.79954 22.1746L6.70966 22.1666H4.67779C4.25296 22.1666 3.90238 21.8487 3.85095 21.4378L3.84446 21.3333V19.9999C3.84446 18.8553 4.73199 17.918 5.85639 17.8387L6.01113 17.8333H7.3335C7.60964 17.8333 7.8335 17.6094 7.8335 17.3333C7.8335 17.0878 7.65662 16.8836 7.42337 16.8413L7.3335 16.8333H6.01113Z" fill="#353535"/>
</g>
</g>
</svg>
