<svg width="18" height="20" viewBox="0 0 18 20" fill="none" xmlns="http://www.w3.org/2000/svg">
<path fill-rule="evenodd" clip-rule="evenodd" d="M17.3977 3.15013C17.0077 1.5913 15.6069 0.497888 14.0001 0.498047C12.8858 0.497872 11.838 1.02793 11.178 1.92565C10.518 2.82336 10.3246 3.98158 10.6571 5.04505L6.10008 7.64905C5.12851 6.57476 3.59583 6.20946 2.24414 6.73003C0.892456 7.25059 0.000732422 8.54958 0.000732422 9.99805C0.000732422 11.4465 0.892456 12.7455 2.24414 13.2661C3.59583 13.7866 5.12851 13.4213 6.10008 12.347L10.6571 14.954C10.122 16.6602 10.9583 18.4955 12.5969 19.2112C14.2355 19.9269 16.1502 19.2932 17.0382 17.7412C17.9263 16.1892 17.5025 14.2174 16.0552 13.1674C14.6078 12.1173 12.6019 12.3263 11.4021 13.652L6.84508 11.046C7.05856 10.3647 7.05856 9.63438 6.84508 8.95305L11.4031 6.34905C12.4809 7.54082 14.2315 7.84617 15.6491 7.08967C17.0668 6.33317 17.7877 4.70896 17.3977 3.15013ZM11.9981 16C11.9981 14.8944 12.8944 13.998 14.0001 13.998C15.1058 13.998 16.0021 14.8944 16.0021 16C16.0021 17.1057 15.1058 18.002 14.0001 18.002C12.8944 18.002 11.9981 17.1057 11.9981 16ZM3.50208 7.99805C2.3964 7.99805 1.50008 8.89437 1.50008 10C1.50008 11.1057 2.3964 12.002 3.50208 12.002C4.60775 12.002 5.50408 11.1057 5.50408 10C5.50408 8.89437 4.60775 7.99805 3.50208 7.99805ZM11.9981 4.00005C11.9981 2.89437 12.8944 1.99805 14.0001 1.99805C15.1058 1.99805 16.0021 2.89437 16.0021 4.00005C16.0021 5.10572 15.1058 6.00205 14.0001 6.00205C12.8944 6.00205 11.9981 5.10572 11.9981 4.00005Z" fill="#1758BA"/>
</svg>
