<svg width="24" height="24" viewBox="0 0 24 24" fill="none" xmlns="http://www.w3.org/2000/svg">
<path fill-rule="evenodd" clip-rule="evenodd" d="M15.865 3.61399C15.4608 2.92625 14.7227 2.50393 13.925 2.50399V2.50299H10.122C9.33995 2.5032 8.6141 2.90948 8.205 3.57599L7.33 4.99999H5.25C3.45507 4.99999 2 6.45507 2 8.24999V17.75C2 19.5449 3.45507 21 5.25 21H18.75C19.612 21 20.4386 20.6576 21.0481 20.0481C21.6576 19.4386 22 18.6119 22 17.75V8.24999C21.9994 6.45546 20.5445 5.00099 18.75 5.00099H16.679L15.865 3.61399ZM10.122 4.00399H13.925V4.00299C14.1907 4.00321 14.4364 4.14395 14.571 4.37299L15.603 6.12999C15.7378 6.35934 15.984 6.50013 16.25 6.49999H18.75C19.7165 6.49999 20.5 7.28349 20.5 8.24999V17.75C20.5 18.7165 19.7165 19.5 18.75 19.5H5.25C4.284 19.5 3.5 18.716 3.5 17.75V8.24999C3.5 7.78569 3.68451 7.34042 4.01292 7.0122C4.34132 6.68398 4.7867 6.49973 5.251 6.49999H7.751C8.01175 6.49985 8.25371 6.36429 8.39 6.14199L9.483 4.36199L9.548 4.27199C9.69037 4.10227 9.90048 4.00417 10.122 4.00399ZM12 7.99999C14.4853 7.99999 16.5 10.0147 16.5 12.5C16.5 14.9853 14.4853 17 12 17C9.51472 17 7.5 14.9853 7.5 12.5C7.5 10.0147 9.51472 7.99999 12 7.99999ZM9.40192 11C9.93782 10.0718 10.9282 9.49999 12 9.49999C13.6569 9.49999 15 10.8431 15 12.5C15 14.1568 13.6569 15.5 12 15.5C10.9282 15.5 9.93782 14.9282 9.40192 14C8.86603 13.0718 8.86603 11.9282 9.40192 11Z" fill="#2CDFC9"/>
</svg>
